<svg xmlns="http://www.w3.org/2000/svg" xmlns:xlink="http://www.w3.org/1999/xlink" width="317" height="267" viewBox="0 0 317 267">
  <defs>
    <linearGradient id="linear-gradient" x1="0.5" y1="1" x2="0.5" gradientUnits="objectBoundingBox">
      <stop offset="0" stop-color="gray" stop-opacity="0.251"/>
      <stop offset="0.54" stop-color="gray" stop-opacity="0.122"/>
      <stop offset="1" stop-color="gray" stop-opacity="0.102"/>
    </linearGradient>
    <linearGradient id="linear-gradient-3" x1="0.5" y1="1" x2="0.5" gradientUnits="objectBoundingBox">
      <stop offset="0" stop-opacity="0.122"/>
      <stop offset="0.55" stop-opacity="0.09"/>
      <stop offset="1" stop-opacity="0.02"/>
    </linearGradient>
    <linearGradient id="linear-gradient-13" x1="0" y1="0.5" x2="1" y2="0.5" xlink:href="#linear-gradient-3"/>
    <linearGradient id="linear-gradient-19" x1="0" y1="0.5" x2="1" y2="0.5" xlink:href="#linear-gradient"/>
    <linearGradient id="linear-gradient-21" xlink:href="#linear-gradient"/>
  </defs>
  <g id="undraw_welcome_3gvl" transform="translate(0.436)">
    <rect id="Rectangle_8" data-name="Rectangle 8" width="267" height="267" transform="translate(25.564)" fill="#e8e8e8" opacity="0.2"/>
    <rect id="Rectangle_9" data-name="Rectangle 9" width="186.016" height="217.201" transform="translate(65.26 24.893)" fill="#e8e8e8" opacity="0.5"/>
    <rect id="Rectangle_10" data-name="Rectangle 10" width="100" height="193" transform="translate(216.564 38)" fill="url(#linear-gradient)"/>
    <rect id="Rectangle_11" data-name="Rectangle 11" width="100" height="192" transform="translate(-0.436 39)" fill="url(#linear-gradient)"/>
    <rect id="Rectangle_12" data-name="Rectangle 12" width="92" height="183" transform="translate(220.564 42)" fill="#e8e8e8"/>
    <rect id="Rectangle_13" data-name="Rectangle 13" width="93" height="183" transform="translate(96.564 225) rotate(180)" fill="#e8e8e8"/>
    <rect id="Rectangle_14" data-name="Rectangle 14" width="63" height="10" transform="translate(17.564 59)" fill="url(#linear-gradient-3)"/>
    <rect id="Rectangle_15" data-name="Rectangle 15" width="62" height="12" transform="translate(235.564 75)" fill="url(#linear-gradient-3)"/>
    <rect id="Rectangle_16" data-name="Rectangle 16" width="62" height="11" transform="translate(235.564 93)" fill="url(#linear-gradient-3)"/>
    <rect id="Rectangle_17" data-name="Rectangle 17" width="62" height="12" transform="translate(235.564 110)" fill="url(#linear-gradient-3)"/>
    <rect id="Rectangle_18" data-name="Rectangle 18" width="62" height="11" transform="translate(235.564 128)" fill="url(#linear-gradient-3)"/>
    <rect id="Rectangle_19" data-name="Rectangle 19" width="62" height="12" transform="translate(235.564 144)" fill="url(#linear-gradient-3)"/>
    <rect id="Rectangle_20" data-name="Rectangle 20" width="62" height="11" transform="translate(235.564 163)" fill="url(#linear-gradient-3)"/>
    <rect id="Rectangle_21" data-name="Rectangle 21" width="62" height="12" transform="translate(235.564 180)" fill="url(#linear-gradient-3)"/>
    <rect id="Rectangle_22" data-name="Rectangle 22" width="62" height="12" transform="translate(235.564 197)" fill="url(#linear-gradient-3)"/>
    <rect id="Rectangle_23" data-name="Rectangle 23" width="62" height="10" transform="translate(235.564 59)" fill="url(#linear-gradient-3)"/>
    <rect id="Rectangle_24" data-name="Rectangle 24" width="63" height="12" transform="translate(17.564 75)" fill="url(#linear-gradient-13)"/>
    <rect id="Rectangle_25" data-name="Rectangle 25" width="63" height="12" transform="translate(17.564 93)" fill="url(#linear-gradient-13)"/>
    <rect id="Rectangle_26" data-name="Rectangle 26" width="63" height="12" transform="translate(17.564 110)" fill="url(#linear-gradient-13)"/>
    <rect id="Rectangle_27" data-name="Rectangle 27" width="63" height="11" transform="translate(17.564 128)" fill="url(#linear-gradient-13)"/>
    <rect id="Rectangle_28" data-name="Rectangle 28" width="63" height="12" transform="translate(17.564 144)" fill="url(#linear-gradient-13)"/>
    <rect id="Rectangle_29" data-name="Rectangle 29" width="61" height="9" transform="translate(19.564 60)" fill="#fff"/>
    <rect id="Rectangle_30" data-name="Rectangle 30" width="59.817" height="8.754" transform="translate(19.85 76.595)" fill="#fff"/>
    <rect id="Rectangle_31" data-name="Rectangle 31" width="59.817" height="8.754" transform="translate(19.85 94.102)" fill="#fff"/>
    <rect id="Rectangle_32" data-name="Rectangle 32" width="59.817" height="8.754" transform="translate(19.85 111.61)" fill="#fff"/>
    <rect id="Rectangle_33" data-name="Rectangle 33" width="59.817" height="8.754" transform="translate(19.85 129.117)" fill="#fff"/>
    <rect id="Rectangle_34" data-name="Rectangle 34" width="59.817" height="8.754" transform="translate(19.85 146.624)" fill="#fff"/>
    <rect id="Rectangle_35" data-name="Rectangle 35" width="63" height="11" transform="translate(17.564 163)" fill="url(#linear-gradient-13)"/>
    <rect id="Rectangle_36" data-name="Rectangle 36" width="59.817" height="8.754" transform="translate(19.85 164.132)" fill="#fff"/>
    <rect id="Rectangle_37" data-name="Rectangle 37" width="59.817" height="8.754" transform="translate(19.85 164.132)" fill="#fff"/>
    <rect id="Rectangle_38" data-name="Rectangle 38" width="59.817" height="8.754" transform="translate(19.85 181.639)" fill="#fff"/>
    <rect id="Rectangle_39" data-name="Rectangle 39" width="59.817" height="8.754" transform="translate(19.85 199.147)" fill="#fff"/>
    <rect id="Rectangle_40" data-name="Rectangle 40" width="59" height="9" transform="translate(237.564 60)" fill="#fff"/>
    <rect id="Rectangle_41" data-name="Rectangle 41" width="59" height="8" transform="translate(237.564 77)" fill="#fff"/>
    <rect id="Rectangle_42" data-name="Rectangle 42" width="59" height="8" transform="translate(237.564 94)" fill="#fff"/>
    <rect id="Rectangle_43" data-name="Rectangle 43" width="59" height="8" transform="translate(237.564 112)" fill="#fff"/>
    <rect id="Rectangle_44" data-name="Rectangle 44" width="59" height="9" transform="translate(237.564 129)" fill="#fff"/>
    <rect id="Rectangle_45" data-name="Rectangle 45" width="59" height="10" transform="translate(237.564 146)" fill="#fff"/>
    <rect id="Rectangle_46" data-name="Rectangle 46" width="59" height="8" transform="translate(237.564 165)" fill="#fff"/>
    <rect id="Rectangle_47" data-name="Rectangle 47" width="59" height="9" transform="translate(237.564 181)" fill="#fff"/>
    <rect id="Rectangle_48" data-name="Rectangle 48" width="59" height="7" transform="translate(237.564 200)" fill="#fff"/>
    <rect id="Rectangle_49" data-name="Rectangle 49" width="220" height="15" transform="translate(48.564 234)" fill="url(#linear-gradient-19)"/>
    <rect id="Rectangle_50" data-name="Rectangle 50" width="217" height="10" transform="translate(49.564 236)" fill="#e8e8e8"/>
    <rect id="Rectangle_51" data-name="Rectangle 51" width="220" height="14" transform="translate(48.564 19)" fill="url(#linear-gradient)"/>
    <rect id="Rectangle_52" data-name="Rectangle 52" width="217" height="11" transform="translate(49.564 20)" fill="#e8e8e8"/>
    <rect id="Rectangle_53" data-name="Rectangle 53" width="105" height="183" transform="translate(106.564 42)" fill="#263238" opacity="0.5"/>
    <path id="Path_1" data-name="Path 1" d="M514.472,410.2c2.553,3.421-1.269,7.463-1.269,7.463l.642.223c-.945,1.047-4.676,5.77-19.061,27.136-18.419,27.355-43.24,34.18-43.24,34.18h0a30.636,30.636,0,0,0-10.114-5.219V471.4a30.273,30.273,0,0,0,20.17-19.506,31.032,31.032,0,0,0,3.334-14.02c0-17.507-14.506-31.71-32.4-31.71s-32.4,14.2-32.4,31.71a31.032,31.032,0,0,0,3.334,14.02,30.273,30.273,0,0,0,20.17,19.506v2.582a30.638,30.638,0,0,0-10.114,5.219h0s-24.831-6.831-43.25-34.187c-14.385-21.366-18.117-26.093-19.061-27.136l.642-.223s-3.811-4.041-1.269-7.462-16.833-7.463-14.611,0,5.081,11.194,5.081,11.194,40.559,63.968,61.732,74.538a29.333,29.333,0,0,0-.751,6.609v12.438h60.977V502.532a29.339,29.339,0,0,0-.751-6.609C483.422,485.345,524,421.389,524,421.389s2.859-3.731,5.081-11.194S511.93,406.777,514.472,410.2Z" transform="translate(-273.897 -288.723)" fill="url(#linear-gradient-21)"/>
    <circle id="Ellipse_1" data-name="Ellipse 1" cx="31.025" cy="31.025" r="31.025" transform="translate(127.608 119.783)" fill="#263238"/>
    <circle id="Ellipse_2" data-name="Ellipse 2" cx="29.201" cy="29.201" r="29.201" transform="translate(129.432 126.476)" fill="#f8c198"/>
    <circle id="Ellipse_3" data-name="Ellipse 3" cx="3.651" cy="3.651" r="3.651" transform="translate(143.423 145.636)" fill="#263238"/>
    <circle id="Ellipse_4" data-name="Ellipse 4" cx="3.651" cy="3.651" r="3.651" transform="translate(167.149 145.636)" fill="#263238"/>
    <path id="Path_2" data-name="Path 2" d="M594.683,544.29c0,2.188-3.812,5.781-8.517,5.781s-8.517-3.593-8.517-5.781,3.812-2.13,8.517-2.13S594.683,542.1,594.683,544.29Z" transform="translate(-427.534 -375.234)" fill="#fff"/>
    <circle id="Ellipse_5" data-name="Ellipse 5" cx="1.218" cy="1.218" r="1.218" transform="translate(146.768 148.069)" fill="#fff"/>
    <circle id="Ellipse_6" data-name="Ellipse 6" cx="1.218" cy="1.218" r="1.218" transform="translate(170.797 148.069)" fill="#fff"/>
    <path id="Path_3" data-name="Path 3" d="M576.185,436.94a3.77,3.77,0,0,1-3.567-3.315,4.377,4.377,0,0,1,2.553-4.286,1.248,1.248,0,0,1,.536-.139c.613,0,.915.729,1.112,1.309a7.32,7.32,0,0,0,3.407,4.377c1.707.832,4.092.4,4.993-1.266a4.837,4.837,0,0,1-2.042-6.693c.543-.864,1.39-1.6,1.561-2.6.314-1.824-1.685-3.151-3.454-3.7-5.106-1.579-22.905-1.754-23.887,5.865C556.369,434.529,570.579,438,576.185,436.94Z" transform="translate(-414.635 -297.471)" fill="#263238"/>
    <ellipse id="Ellipse_7" data-name="Ellipse 7" cx="1.824" cy="5.172" rx="1.824" ry="5.172" transform="matrix(0.93, -0.367, 0.367, 0.93, 127.05, 151.847)" fill="#f8c198"/>
    <ellipse id="Ellipse_8" data-name="Ellipse 8" cx="5.172" cy="1.824" rx="5.172" ry="1.824" transform="matrix(0.367, -0.93, 0.93, 0.367, 183.02, 160.111)" fill="#f8c198"/>
    <path id="Path_4" data-name="Path 4" d="M644.236,503.844s23.77-6.675,41.412-33.443S704.2,443.56,704.2,443.56l9.428,3.724s-43.8,70.569-62.654,74.22S644.236,503.844,644.236,503.844Z" transform="translate(-467.399 -312.597)" fill="#ff9800"/>
    <path id="Path_5" data-name="Path 5" d="M812.83,423.893s3.647-3.954,1.218-7.295,16.121-7.295,13.991,0-4.866,10.942-4.866,10.942Z" transform="translate(-576.935 -292.853)" fill="#f8c198"/>
    <path id="Path_6" data-name="Path 6" d="M430.225,503.844s-23.77-6.675-41.412-33.443-18.554-26.841-18.554-26.841l-9.428,3.724s43.8,70.569,62.662,74.22S430.225,503.844,430.225,503.844Z" transform="translate(-289.796 -312.597)" fill="#ff9800"/>
    <path id="Path_7" data-name="Path 7" d="M362.382,423.893s-3.647-3.954-1.218-7.295-16.121-7.295-13.991,0,4.866,10.942,4.866,10.942Z" transform="translate(-281.012 -292.853)" fill="#f8c198"/>
    <g id="Group_2" data-name="Group 2" transform="translate(143.299 124.386)" opacity="0.2">
      <path id="Path_8" data-name="Path 8" d="M624.466,426.165c-.175,1.007-1.021,1.736-1.561,2.6a4.894,4.894,0,0,0,1.211,6.2,4.664,4.664,0,0,1,.31-4.063c.543-.864,1.39-1.6,1.561-2.6a2.858,2.858,0,0,0-1.506-2.772A2.19,2.19,0,0,1,624.466,426.165Z" transform="translate(-599.179 -425.53)" fill="#fff"/>
      <path id="Path_9" data-name="Path 9" d="M599.565,442.787c-.117-.274-.226-.551-.321-.828-.2-.58-.5-1.291-1.113-1.309a1.246,1.246,0,0,0-.536.139,4.377,4.377,0,0,0-2.553,4.286,3.841,3.841,0,0,0,1.63,2.681,3.4,3.4,0,0,1-.109-.551,4.377,4.377,0,0,1,2.553-4.286A1.411,1.411,0,0,1,599.565,442.787Z" transform="translate(-581.875 -435.135)" fill="#fff"/>
      <path id="Path_10" data-name="Path 10" d="M574.078,453.456c-4.435.186-11.591-1.506-15.118-5.106,2.633,5.6,13.514,7.948,18.237,7.047A3.676,3.676,0,0,1,574.078,453.456Z" transform="translate(-558.96 -440.027)" fill="#fff"/>
      <path id="Path_11" data-name="Path 11" d="M618.23,453.8a4.014,4.014,0,0,1-4.65.773,5.3,5.3,0,0,1-1.35-.952,6.507,6.507,0,0,0,2.87,3.078c1.707.828,4.092.4,4.993-1.266A4.332,4.332,0,0,1,618.23,453.8Z" transform="translate(-592.8 -443.374)" fill="#fff"/>
    </g>
    <path id="Path_12" data-name="Path 12" d="M722.918,453.166s-43.8,70.569-62.68,74.22a22.005,22.005,0,0,1-3.308.4,19.356,19.356,0,0,0,4.526-.4c18.861-3.647,62.662-74.22,62.662-74.22l-.977-.346A4.078,4.078,0,0,1,722.918,453.166Z" transform="translate(-477.897 -318.48)" fill="#fff" opacity="0.2"/>
    <path id="Path_13" data-name="Path 13" d="M362.06,453.166s43.8,70.569,62.68,74.22a22.007,22.007,0,0,0,3.308.4,19.356,19.356,0,0,1-4.526-.4c-18.861-3.647-62.662-74.22-62.662-74.22l.977-.346A4.072,4.072,0,0,0,362.06,453.166Z" transform="translate(-289.815 -318.48)" fill="#fff" opacity="0.2"/>
    <path id="Path_14" data-name="Path 14" d="M384.141,506.88h0a29.2,29.2,0,0,1,29.2,29.2v12.168h-58.4V536.081A29.2,29.2,0,0,1,384.141,506.88Z" transform="translate(-225.508 -322.002)" fill="#ff9800"/>
    <path id="Path_15" data-name="Path 15" d="M596.284,591.8h0a29.561,29.561,0,0,0-3.184.172c.369,0,.7-.022,1.054-.022h0a29.2,29.2,0,0,1,29.2,29.2v12.014h2.13V621A29.2,29.2,0,0,0,596.284,591.8Z" transform="translate(-437.348 -406.769)" fill="#fff" opacity="0.2"/>
    <path id="Path_16" data-name="Path 16" d="M549.311,591.8h0a29.563,29.563,0,0,1,3.185.172c-.369,0-.7-.022-1.054-.022h0a29.2,29.2,0,0,0-29.2,29.2v12.014h-2.13V621A29.2,29.2,0,0,1,549.311,591.8Z" transform="translate(-390.981 -406.769)" fill="#fff" opacity="0.2"/>
    <rect id="Rectangle_54" data-name="Rectangle 54" width="17.033" height="20.531" rx="8.517" transform="translate(150.116 176.817)" fill="#f8c198"/>
  </g>
</svg>
