<svg xmlns="http://www.w3.org/2000/svg" width="40.473" height="40.473" viewBox="0 0 40.473 40.473">
  <path id="user-circle" d="M20.237,15.834a7.834,7.834,0,1,0,7.834,7.834A7.836,7.836,0,0,0,20.237,15.834Zm0,11.75a3.917,3.917,0,1,1,3.917-3.917A3.918,3.918,0,0,1,20.237,27.584ZM20.237,8A20.237,20.237,0,1,0,40.473,28.237,20.233,20.233,0,0,0,20.237,8Zm0,36.556A16.227,16.227,0,0,1,9.621,40.607,7.03,7.03,0,0,1,15.3,37.384a16.6,16.6,0,0,0,4.937.783,16.343,16.343,0,0,0,4.937-.783,7.05,7.05,0,0,1,5.679,3.223A16.227,16.227,0,0,1,20.237,44.556Zm13.276-6.863a10.824,10.824,0,0,0-8.576-4.235c-.832,0-2.122.783-4.7.783s-3.868-.783-4.7-.783A10.848,10.848,0,0,0,6.96,37.694a16.312,16.312,0,1,1,29.6-9.457A16.2,16.2,0,0,1,33.513,37.694Z" transform="translate(0 -8)" fill="#39424e"/>
</svg>
