<svg id="Group_46" data-name="Group 46" xmlns="http://www.w3.org/2000/svg" width="44.031" height="44.031" viewBox="0 0 44.031 44.031">
  <g id="Group_5" data-name="Group 5">
    <path id="Path_40" data-name="Path 40" d="M22.016,0A22.016,22.016,0,1,1,0,22.016,22.016,22.016,0,0,1,22.016,0Z" fill="#c2c2c2"/>
    <path id="clipboard-list" d="M16.128,3.072h-3.84a3.072,3.072,0,0,0-6.144,0H2.3A2.3,2.3,0,0,0,0,5.376v16.9a2.3,2.3,0,0,0,2.3,2.3H16.128a2.3,2.3,0,0,0,2.3-2.3V5.376A2.3,2.3,0,0,0,16.128,3.072ZM4.608,20.352A1.152,1.152,0,1,1,5.76,19.2,1.149,1.149,0,0,1,4.608,20.352Zm0-4.608A1.152,1.152,0,1,1,5.76,14.592,1.149,1.149,0,0,1,4.608,15.744Zm0-4.608A1.152,1.152,0,1,1,5.76,9.984,1.149,1.149,0,0,1,4.608,11.136ZM9.216,1.92A1.152,1.152,0,1,1,8.064,3.072,1.149,1.149,0,0,1,9.216,1.92ZM15.36,19.584a.385.385,0,0,1-.384.384H8.064a.385.385,0,0,1-.384-.384v-.768a.385.385,0,0,1,.384-.384h6.912a.385.385,0,0,1,.384.384Zm0-4.608a.385.385,0,0,1-.384.384H8.064a.385.385,0,0,1-.384-.384v-.768a.385.385,0,0,1,.384-.384h6.912a.385.385,0,0,1,.384.384Zm0-4.608a.385.385,0,0,1-.384.384H8.064a.385.385,0,0,1-.384-.384V9.6a.385.385,0,0,1,.384-.384h6.912a.385.385,0,0,1,.384.384Z" transform="translate(12.397 9.47)" fill="#fff"/>
  </g>
</svg>
