<svg xmlns="http://www.w3.org/2000/svg" width="290.776" height="220.755" viewBox="0 0 290.776 220.755">
  <g id="Group_22" data-name="Group 22" transform="translate(-1174 -163)">
    <g id="undraw_code_review_l1q9" transform="translate(1174 163)">
      <path id="Path_41" data-name="Path 41" d="M198.036,217.678C135.45,212.915,60.814,164.421,64.613,114.489S140.7,18.074,203.285,22.837,301.9,120.915,298.1,170.847,260.621,222.441,198.036,217.678Z" transform="translate(-57.355 -22.5)" fill="#f2f2f2" opacity="0.5"/>
      <ellipse id="Ellipse_1" data-name="Ellipse 1" cx="130.646" cy="8.004" rx="130.646" ry="8.004" transform="translate(15.283 187.19)" fill="#3f3d56"/>
      <ellipse id="Ellipse_2" data-name="Ellipse 2" cx="111.281" cy="5.293" rx="111.281" ry="5.293" transform="translate(34.648 189.772)" opacity="0.1"/>
      <ellipse id="Ellipse_3" data-name="Ellipse 3" cx="54.787" cy="4.777" rx="54.787" ry="4.777" transform="translate(0 211.202)" fill="#3f3d56"/>
      <ellipse id="Ellipse_4" data-name="Ellipse 4" cx="46.666" cy="3.159" rx="46.666" ry="3.159" transform="translate(8.121 212.743)" opacity="0.1"/>
      <rect id="Rectangle_14" data-name="Rectangle 14" width="194.161" height="152.334" transform="translate(50.656 41.827)" fill="#3f3d56"/>
      <path id="Path_42" data-name="Path 42" d="M461.253,261.789h-47.9a.581.581,0,0,1,0-1.163h47.9a.581.581,0,1,1,0,1.163Z" transform="translate(-315.726 -199.144)" fill="#f2f2f2"/>
      <path id="Path_43" data-name="Path 43" d="M585.5,286.555H510.165a.581.581,0,0,1,0-1.163H585.5a.581.581,0,0,1,0,1.163Z" transform="translate(-387.541 -217.515)" fill="#f2f2f2"/>
      <path id="Path_44" data-name="Path 44" d="M462.153,311.321h-47.9a.581.581,0,1,1,0-1.163h47.9a.581.581,0,1,1,0,1.163Z" transform="translate(-316.393 -235.887)" fill="#f2f2f2"/>
      <path id="Path_45" data-name="Path 45" d="M664.331,311.771h-47.9a.581.581,0,0,1,0-1.163h47.9a.581.581,0,1,1,0,1.163Z" transform="translate(-466.371 -236.221)" fill="#f2f2f2"/>
      <path id="Path_46" data-name="Path 46" d="M462.6,336.086H414.7a.581.581,0,1,1,0-1.163h47.9a.581.581,0,0,1,0,1.163Z" transform="translate(-316.727 -254.258)" fill="#f2f2f2"/>
      <path id="Path_47" data-name="Path 47" d="M463.054,360.852h-47.9a.581.581,0,0,1,0-1.163h47.9a.581.581,0,0,1,0,1.163Z" transform="translate(-317.062 -272.629)" fill="#f2f2f2"/>
      <path id="Path_48" data-name="Path 48" d="M645.461,262.239H631.742a.581.581,0,0,1,0-1.163h13.719a.581.581,0,0,1,0,1.163Z" transform="translate(-477.728 -199.478)" fill="#f2f2f2"/>
      <path id="Path_49" data-name="Path 49" d="M645.461,336.086H631.742a.581.581,0,0,1,0-1.163h13.719a.581.581,0,0,1,0,1.163Z" transform="translate(-477.728 -254.258)" fill="#f2f2f2"/>
      <path id="Path_50" data-name="Path 50" d="M645.461,360.4H631.742a.581.581,0,1,1,0-1.163h13.719a.581.581,0,1,1,0,1.163Z" transform="translate(-477.728 -272.296)" fill="#f2f2f2"/>
      <path id="Path_51" data-name="Path 51" d="M734.618,360.4H720.9a.581.581,0,1,1,0-1.163h13.719a.581.581,0,1,1,0,1.163Z" transform="translate(-543.865 -272.296)" fill="#f2f2f2"/>
      <path id="Path_52" data-name="Path 52" d="M426.622,286.555H412.9a.581.581,0,1,1,0-1.163h13.719a.581.581,0,1,1,0,1.163Z" transform="translate(-315.391 -217.515)" fill="#f2f2f2"/>
      <path id="Path_53" data-name="Path 53" d="M461.478,626.521h-47.9a.581.581,0,1,1,0-1.163h47.9a.581.581,0,0,1,0,1.163Z" transform="translate(-315.893 -469.705)" fill="#f2f2f2"/>
      <path id="Path_54" data-name="Path 54" d="M460.577,676.052h-47.9a.581.581,0,1,1,0-1.163h47.9a.581.581,0,0,1,0,1.163Z" transform="translate(-315.224 -506.447)" fill="#f2f2f2"/>
      <path id="Path_55" data-name="Path 55" d="M461.027,700.818h-47.9a.581.581,0,0,1,0-1.163h47.9a.581.581,0,0,1,0,1.163Z" transform="translate(-315.558 -524.819)" fill="#f2f2f2"/>
      <path id="Path_56" data-name="Path 56" d="M638.481,676.5H624.763a.581.581,0,0,1,0-1.163h13.719a.581.581,0,0,1,0,1.163Z" transform="translate(-472.551 -506.781)" fill="#f2f2f2"/>
      <path id="Path_57" data-name="Path 57" d="M638.481,700.818H624.763a.581.581,0,0,1,0-1.163h13.719a.581.581,0,0,1,0,1.163Z" transform="translate(-472.551 -524.819)" fill="#f2f2f2"/>
      <path id="Path_58" data-name="Path 58" d="M727.638,676.5H713.919a.581.581,0,1,1,0-1.163h13.719a.581.581,0,1,1,0,1.163Z" transform="translate(-538.687 -506.781)" fill="#f2f2f2"/>
      <path id="Path_59" data-name="Path 59" d="M585.727,651.286H510.39a.581.581,0,1,1,0-1.163h75.337a.581.581,0,1,1,0,1.163Z" transform="translate(-387.708 -488.075)" fill="#f2f2f2"/>
      <path id="Path_60" data-name="Path 60" d="M426.847,651.286H413.128a.581.581,0,0,1,0-1.163h13.719a.581.581,0,0,1,0,1.163Z" transform="translate(-315.558 -488.075)" fill="#f2f2f2"/>
      <path id="Path_61" data-name="Path 61" d="M585.727,726.034H510.39a.581.581,0,1,1,0-1.163h75.337a.581.581,0,1,1,0,1.163Z" transform="translate(-387.708 -543.524)" fill="#f2f2f2"/>
      <path id="Path_62" data-name="Path 62" d="M426.847,726.034H413.128a.581.581,0,0,1,0-1.163h13.719a.581.581,0,0,1,0,1.163Z" transform="translate(-315.558 -543.524)" fill="#f2f2f2"/>
      <path id="Path_63" data-name="Path 63" d="M465.616,401.13l-18.6,18.369,18.6,18.369,4.185-4.185-14.067-14.068,14.184-14.184Z" transform="translate(-331.598 -297.561)" fill="#fff"/>
      <path id="Path_64" data-name="Path 64" d="M612.969,401.13l18.6,18.369-18.6,18.369-4.185-4.185,14.068-14.068-14.184-14.184Z" transform="translate(-451.514 -297.561)" fill="#fff"/>
      <circle id="Ellipse_5" data-name="Ellipse 5" cx="2.324" cy="2.324" r="2.324" transform="translate(53.496 43.376)" fill="#fff"/>
      <circle id="Ellipse_6" data-name="Ellipse 6" cx="2.324" cy="2.324" r="2.324" transform="translate(59.693 43.376)" fill="#fff"/>
      <circle id="Ellipse_7" data-name="Ellipse 7" cx="2.324" cy="2.324" r="2.324" transform="translate(65.889 43.376)" fill="#fff"/>
      <rect id="Rectangle_15" data-name="Rectangle 15" width="194.161" height="0.775" transform="translate(50.656 49.573)" opacity="0.1"/>
      <path id="Path_65" data-name="Path 65" d="M1037.473,522.468c0,16.465-9.788,22.214-21.863,22.214s-21.863-5.749-21.863-22.214,21.863-37.412,21.863-37.412S1037.473,506,1037.473,522.468Z" transform="translate(-746.697 -365.627)" fill="#f2f2f2"/>
      <path id="Path_66" data-name="Path 66" d="M1013.186,519.663l.225-13.78,9.318-17.048-9.282,14.886.1-6.2,6.421-12.334-6.4,10.694h0l.181-11.144,6.878-9.819-6.85,8.067.114-20.434-.71,27.051.057-1.116-6.992-10.7,6.881,12.845-.653,12.446-.018-.33-8.061-11.263,8.035,12.43-.08,1.556-.016.024.008.128-1.652,31.576h2.208l.263-16.31,8.017-12.4Z" transform="translate(-745.071 -343.127)" fill="#3f3d56"/>
      <path id="Path_67" data-name="Path 67" d="M137.966,769.235a11.127,11.127,0,0,1-2.112.9c-1.311.358-2.713.227-4.037.533a1.661,1.661,0,0,0-1.3.916,1.925,1.925,0,0,0,.143,1.194c1.464,4.291,2.346,8.847,4.68,12.734a19.27,19.27,0,0,0,3.613,4.386,3.444,3.444,0,0,0,1.842,1.021,1.871,1.871,0,0,0,1.9-2.629c-.209-.465-.6-.825-.849-1.269a4.843,4.843,0,0,1-.47-1.8,11.734,11.734,0,0,1,.183-5.491,18.451,18.451,0,0,1,1.861-3.214,5.61,5.61,0,0,0,1.048-3.5,6.074,6.074,0,0,0-.942-2.338c-.434-.729-1.292-2.687-2.164-2.931C140.453,767.5,138.755,768.831,137.966,769.235Z" transform="translate(-106.305 -575.309)" fill="#2f2e41"/>
      <path id="Path_68" data-name="Path 68" d="M246.917,816.335a3.62,3.62,0,0,1-.171,1.225c-.273.721-.95,1.215-1.3,1.9a4.2,4.2,0,0,0,.056,3.133,3.21,3.21,0,0,0,1.01,1.7,3.329,3.329,0,0,0,1.537.492c4.657.644,9.387.275,14.087.41a4.809,4.809,0,0,0,2.511-.364,1.583,1.583,0,0,0,.7-2.161c-.457-.619-1.359-.614-2.128-.65a8.756,8.756,0,0,1-5.4-2.224,3.9,3.9,0,0,1-.757-.872,5.361,5.361,0,0,1-.4-.908,40.493,40.493,0,0,0-2.345-5.195,2.751,2.751,0,0,0-1.008-1.207,2.664,2.664,0,0,0-1.095-.239c-1.171-.076-4.2-.474-5.11.436C246.271,812.66,246.935,815.266,246.917,816.335Z" transform="translate(-191.391 -607.586)" fill="#2f2e41"/>
      <circle id="Ellipse_8" data-name="Ellipse 8" cx="7.481" cy="7.481" r="7.481" transform="translate(55.252 89.785)" fill="#fbbebe"/>
      <path id="Path_69" data-name="Path 69" d="M247.107,413.176a5.623,5.623,0,0,1-2.3,2.951l10.347,2.111a10.961,10.961,0,0,1-.145-4.614,2.66,2.66,0,0,0,.062-1.138c-.195-.751-1.04-1.112-1.8-1.284a24,24,0,0,1-5.313-1.5C247.427,410.625,247.5,412.118,247.107,413.176Z" transform="translate(-191.129 -309.733)" fill="#fbbebe"/>
      <path id="Path_70" data-name="Path 70" d="M217.547,421.659a8.091,8.091,0,0,1,7.052.184,15.963,15.963,0,0,1,3.5,2.8c.995.96,2.056,2.058,2.126,3.439a9.636,9.636,0,0,1-.28,1.984,6.653,6.653,0,0,0,3.558,6.834,9.054,9.054,0,0,1,1,4.625c.048,6.051-1.861,12.177-.5,18.072.32,1.384.816,2.725,1.093,4.119.358,1.805.34,3.661.528,5.492a24.6,24.6,0,0,0,1.32,5.808,2.413,2.413,0,0,1-2.231.933,6.3,6.3,0,0,1-2.386-.81c-3.647-1.866-6.987-4.327-10.763-5.912-2.5-1.049-5.161-1.7-7.585-2.915s-4.678-3.135-5.42-5.742a13.439,13.439,0,0,1-.358-3.486c-.074-4.935-.142-9.924.932-14.741.947-4.248,2.773-8.312,3.172-12.647.13-1.411.132-2.921.921-4.1C214.35,423.93,216.755,423.5,217.547,421.659Z" transform="translate(-163.954 -318.066)" fill="#2f2e41"/>
      <path id="Path_71" data-name="Path 71" d="M240.061,366.843a1.933,1.933,0,0,1,2-.483c.7.17,1.354.533,2.065.671a1.207,1.207,0,0,0,.966-.136,1.406,1.406,0,0,0,.417-.922,17.6,17.6,0,0,0,.173-4.487,1.329,1.329,0,0,1,.041-.629c.176-.424.713-.525,1.152-.661a3.438,3.438,0,0,0,2.327-3.52,1.4,1.4,0,0,0-.428-.966,1.76,1.76,0,0,0-1.12-.266q-3.017-.024-6.033,0a4.381,4.381,0,0,0-2.171.4,10.544,10.544,0,0,0-1.26,1.062c-1.117.9-2.628,1.085-3.987,1.547a3.953,3.953,0,0,0-1.747,1.042,1.841,1.841,0,0,0-.385,1.909,6.78,6.78,0,0,0,.487.75c.8,1.282.268,2.944.388,4.451.149,1.882,2.934,4.934,4.823,5.38C240.813,372.7,239.052,368.079,240.061,366.843Z" transform="translate(-181.583 -269.472)" fill="#2f2e41"/>
      <path id="Path_72" data-name="Path 72" d="M242.882,681.493a22.326,22.326,0,0,1,.373,4.139c-.092,1.935-.79,3.8-.919,5.732-.1,1.443.126,2.9-.074,4.335-.128.917-.428,1.8-.613,2.709a11.2,11.2,0,0,0,1.8,8.589,1.407,1.407,0,0,0,.522.506,1.476,1.476,0,0,0,.648.086,46.462,46.462,0,0,0,6.5-.591.623.623,0,0,0,.417-.184.585.585,0,0,0,.091-.246c.4-2.049-.51-4.1-.742-6.178a19.177,19.177,0,0,1,.812-6.6,29.315,29.315,0,0,1,.9-3.157c.255-.7.563-1.374.784-2.082a15.869,15.869,0,0,0,.569-3.409q.23-2.73.244-5.474a22.969,22.969,0,0,0-.43-5.166,27.542,27.542,0,0,0-2.462-6.127,3.88,3.88,0,0,0-1.45.689,32.373,32.373,0,0,1-3.963,2.19c-.921.428-2.717.732-3.3,1.623s-.2,2.672-.16,3.642Q242.535,679.015,242.882,681.493Z" transform="translate(-188.627 -501.615)" fill="#2f2e41"/>
      <path id="Path_73" data-name="Path 73" d="M242.882,681.493a22.326,22.326,0,0,1,.373,4.139c-.092,1.935-.79,3.8-.919,5.732-.1,1.443.126,2.9-.074,4.335-.128.917-.428,1.8-.613,2.709a11.2,11.2,0,0,0,1.8,8.589,1.407,1.407,0,0,0,.522.506,1.476,1.476,0,0,0,.648.086,46.462,46.462,0,0,0,6.5-.591.623.623,0,0,0,.417-.184.585.585,0,0,0,.091-.246c.4-2.049-.51-4.1-.742-6.178a19.177,19.177,0,0,1,.812-6.6,29.315,29.315,0,0,1,.9-3.157c.255-.7.563-1.374.784-2.082a15.869,15.869,0,0,0,.569-3.409q.23-2.73.244-5.474a22.969,22.969,0,0,0-.43-5.166,27.542,27.542,0,0,0-2.462-6.127,3.88,3.88,0,0,0-1.45.689,32.373,32.373,0,0,1-3.963,2.19c-.921.428-2.717.732-3.3,1.623s-.2,2.672-.16,3.642Q242.535,679.015,242.882,681.493Z" transform="translate(-188.627 -501.615)" opacity="0.1"/>
      <path id="Path_74" data-name="Path 74" d="M179.642,605.518c-.993,2.675.467,5.565,1.736,8.121,3.126,6.3,5.3,13.015,7.455,19.7a2.416,2.416,0,0,1,.143,1.543,2.021,2.021,0,0,1-.729.864c-1.489,1.131-3.384,1.533-5.157,2.125a23.28,23.28,0,0,0-4.891,2.293c-1.285.8-2.489,1.715-3.69,2.633l-3.824,2.921a2.559,2.559,0,0,0-.639.619,2.5,2.5,0,0,0-.034,2,33.938,33.938,0,0,0,1.872,5.11,1.784,1.784,0,0,0,.679.89c.6.321,1.327-.1,1.783-.606s.85-1.125,1.493-1.341,1.348.045,2.018-.049c1.084-.152,1.8-1.151,2.585-1.917,3.193-3.132,8.523-2.905,12.035-5.674a15.3,15.3,0,0,1,1.609-1.257c.594-.351,1.267-.544,1.883-.854a7.983,7.983,0,0,0,3.682-4.895c.631-2,.811-4.112,1.264-6.161a26.789,26.789,0,0,0,.647-3.186,17.066,17.066,0,0,0-.065-3.012l-1.267-15.676c-.1-1.276-.206-2.554-.407-3.819-3.764.135-7.524.286-11.29.33C185.536,606.255,182.485,606.465,179.642,605.518Z" transform="translate(-135.501 -454.987)" fill="#2f2e41"/>
      <path id="Path_75" data-name="Path 75" d="M201.462,602.056a2.011,2.011,0,0,0,2.609.354c.856-.45,1.52-1.206,2.378-1.653a7.728,7.728,0,0,1,3.815-.541,24.8,24.8,0,0,1,6.116.683c2.046.583,4.038,1.7,6.154,1.481a1.266,1.266,0,0,0,.971-.456,1.431,1.431,0,0,0,.16-.732l.069-1.848a1.669,1.669,0,0,0-.147-.936,1.571,1.571,0,0,0-.7-.537c-3.011-1.458-6.446-1.729-9.789-1.844q-2.55-.087-5.1-.072a18.586,18.586,0,0,0-4.58.186C201.531,596.66,200.506,600.519,201.462,602.056Z" transform="translate(-158.704 -447.858)" fill="#2f2e41"/>
      <path id="Path_76" data-name="Path 76" d="M219.168,424.44c-3.946-.035-7.521-2.639-11.467-2.7a2.973,2.973,0,0,0-1.392.24,5.184,5.184,0,0,0-1.329,1.265c-1.167,1.263-2.856,1.938-4.054,3.171a4.7,4.7,0,0,0-1.305,4.429,3.291,3.291,0,0,0,3.687,2.366,9.5,9.5,0,0,1,3.7-5.03,18.819,18.819,0,0,1,2.893-1.519c1.773-.8,3.756-1.622,5.607-1.02a7.909,7.909,0,0,1,1.913,1.043l3.086,2.073A21.486,21.486,0,0,0,219.168,424.44Z" transform="translate(-157.501 -318.652)" fill="#fff"/>
      <path id="Path_77" data-name="Path 77" d="M196.779,441.062c-.524.654.231,1.6.115,2.43-.077.551-.53.972-.719,1.5a8.016,8.016,0,0,0-.166,1.715,7.356,7.356,0,0,1-.329,1.221,21.936,21.936,0,0,0-.694,3.621L194.3,456.7a19.539,19.539,0,0,0-.218,2.344,7,7,0,0,1-.117,1.752,12.941,12.941,0,0,1-.719,1.594,1.868,1.868,0,0,0-.026,1.685,2.944,2.944,0,0,0-.616,3.675,2.04,2.04,0,0,1,.318.585,1.5,1.5,0,0,1-.14.862l-.7,1.861c-.179.476-.235,1.2.262,1.31a4.391,4.391,0,0,0-.943,1.489,1.773,1.773,0,0,0,.251,1.68,2.14,2.14,0,0,1,.437.531,1.413,1.413,0,0,1-.051.837,3.074,3.074,0,0,0,.38,2.41,2.161,2.161,0,0,0,2.174.932,9.931,9.931,0,0,1,4.061-.554,72.546,72.546,0,0,1,9.013,2.053c3.352,1.07,6.6,2.64,10.1,2.969a.981.981,0,0,0,.676-.105,1.015,1.015,0,0,0,.312-.642l1.083-5.077a52.245,52.245,0,0,0,1-5.687c.123-1.234.158-2.476.193-3.716l.279-9.871a9.862,9.862,0,0,0-.568-4.291l-1.605-5.125c-.916-2.924-3.018-5.518-3.766-8.49-.474-1.881-.823-3.9-2.093-5.366-1.811-2.09-4.943-2.415-7.685-2.056a9.181,9.181,0,0,0-3.559,1.085,11.663,11.663,0,0,0-3.035,3.056C198.264,439.376,197.523,440.133,196.779,441.062Z" transform="translate(-151.427 -327.877)" fill="#fff"/>
      <path id="Path_78" data-name="Path 78" d="M236.612,554.927c.226.974.7,1.872.991,2.829.487,1.6.445,3.33.931,4.933.2.673.5,1.319.645,2.007a8.316,8.316,0,0,1-.775,4.781,18.678,18.678,0,0,0-1.573,4.642,3.556,3.556,0,0,0,.945,3.184,4.652,4.652,0,0,0,3.444.617,3.618,3.618,0,0,0,1.25-.26,3.375,3.375,0,0,0,1.512-2.5,37.11,37.11,0,0,0,.3-10.12l-.544-8.839a20.687,20.687,0,0,0-.741-5.073,4.837,4.837,0,0,0-1.066-2.175,7.175,7.175,0,0,0-2.739-.424C236.071,548.381,236.106,552.741,236.612,554.927Z" transform="translate(-184.859 -412.709)" fill="#fbbebe"/>
      <path id="Path_79" data-name="Path 79" d="M232.787,446.384a2.15,2.15,0,0,0-2.058.182,6.342,6.342,0,0,0-1.542,1.5c-1.379,1.683-2.838,3.613-2.633,5.779a14.654,14.654,0,0,0,.6,2.368c.924,3.454-.1,7.108.019,10.682a33.446,33.446,0,0,0,.965,6.114c.091.412.238.888.636,1.027a1.381,1.381,0,0,0,.918-.142,7.325,7.325,0,0,1,6.7.845c.74-.395.463-1.643.3-2.465-.493-2.442.176-4.961.988-7.316a26.95,26.95,0,0,0,1.919-7.194c.152-2.818-.782-5.569-1.7-8.237a2.649,2.649,0,0,0-2.231-2.209A15.393,15.393,0,0,1,232.787,446.384Z" transform="translate(-177.573 -336.801)" fill="#2f2e41"/>
    </g>
  </g>
</svg>
