<svg id="Group_4" data-name="Group 4" xmlns="http://www.w3.org/2000/svg" width="42.999" height="42.999" viewBox="0 0 42.999 42.999">
  <g id="Group_5" data-name="Group 5">
    <path id="Path_40" data-name="Path 40" d="M21.5,0A21.5,21.5,0,1,1,0,21.5,21.5,21.5,0,0,1,21.5,0Z" fill="#fe7501"/>
    <path id="clipboard-list" d="M15.75,3H12A3,3,0,1,0,6,3H2.25A2.251,2.251,0,0,0,0,5.25v16.5A2.251,2.251,0,0,0,2.25,24h13.5A2.251,2.251,0,0,0,18,21.75V5.25A2.251,2.251,0,0,0,15.75,3ZM4.5,19.875A1.125,1.125,0,1,1,5.625,18.75,1.122,1.122,0,0,1,4.5,19.875Zm0-4.5A1.125,1.125,0,1,1,5.625,14.25,1.122,1.122,0,0,1,4.5,15.375Zm0-4.5A1.125,1.125,0,1,1,5.625,9.75,1.122,1.122,0,0,1,4.5,10.875Zm4.5-9A1.125,1.125,0,1,1,7.875,3,1.122,1.122,0,0,1,9,1.875Zm6,17.25a.376.376,0,0,1-.375.375H7.875a.376.376,0,0,1-.375-.375v-.75A.376.376,0,0,1,7.875,18h6.75a.376.376,0,0,1,.375.375Zm0-4.5a.376.376,0,0,1-.375.375H7.875a.376.376,0,0,1-.375-.375v-.75a.376.376,0,0,1,.375-.375h6.75a.376.376,0,0,1,.375.375Zm0-4.5a.376.376,0,0,1-.375.375H7.875a.376.376,0,0,1-.375-.375v-.75A.376.376,0,0,1,7.875,9h6.75A.376.376,0,0,1,15,9.375Z" transform="translate(12.107 9.248)" fill="#fff"/>
  </g>
</svg>
