<svg xmlns="http://www.w3.org/2000/svg" xmlns:xlink="http://www.w3.org/1999/xlink" width="447.878" height="435.687" viewBox="0 0 447.878 435.687">
  <defs>
    <linearGradient id="linear-gradient" y1="0.122" x2="1" y2="1" gradientUnits="objectBoundingBox">
      <stop offset="0" stop-color="#fe7501"/>
      <stop offset="1" stop-color="#dd5523"/>
    </linearGradient>
    <linearGradient id="linear-gradient-2" x1="0.5" x2="0.5" y2="1" gradientUnits="objectBoundingBox">
      <stop offset="0" stop-color="#fcc82a"/>
      <stop offset="1" stop-color="#fe7501"/>
    </linearGradient>
  </defs>
  <g id="Group_44" data-name="Group 44" transform="translate(447.878 909.687) rotate(180)">
    <path id="Path_32" data-name="Path 32" d="M0,765.124S60.783,712.871,115.169,737.4s61.85,73.58,66.115,98.107,18.128,73.58,73.58,81.045S418.02,820.575,447.878,984.8H0Z" transform="translate(0 -75.111)" opacity="0.8" fill="url(#linear-gradient)"/>
    <path id="Subtraction_1" data-name="Subtraction 1" d="M13.3,95.6A47.867,47.867,0,0,1,0,93.721V1.874A47.75,47.75,0,0,1,47.095,14,47.639,47.639,0,0,1,57.338,29.193a47.955,47.955,0,0,1,0,37.21A47.758,47.758,0,0,1,13.3,95.6Z" transform="translate(0 551.626)" opacity="0.8" fill="url(#linear-gradient-2)"/>
    <circle id="Ellipse_36" data-name="Ellipse 36" cx="28.032" cy="28.032" r="28.032" transform="translate(21.563 474)" opacity="0.8" fill="url(#linear-gradient-2)"/>
  </g>
</svg>
